<svg width="290" height="56" viewBox="0 0 290 56" fill="none" xmlns="http://www.w3.org/2000/svg">
<path d="M6.1665 13.8838V46.7576H4.47306C3.87888 46.7508 3.29186 46.6271 2.74551 46.3935C2.19916 46.1598 1.70418 45.8209 1.28883 45.3959C0.873492 44.971 0.545924 44.4684 0.324836 43.9168C0.103748 43.3653 -0.00653049 42.7756 0.000298856 42.1814V18.46C-0.00653049 17.8658 0.103748 17.2761 0.324836 16.7246C0.545924 16.173 0.873492 15.6704 1.28883 15.2455C1.70418 14.8205 2.19916 14.4815 2.74551 14.2479C3.29186 14.0143 3.87888 13.8905 4.47306 13.8838H6.1665Z" fill="url(#paint0_linear_136_1805)"/>
<path d="M12.992 42.8536C12.3859 42.4109 11.8988 41.825 11.574 41.1484C11.2492 40.4717 11.0968 39.7253 11.1305 38.9755C11.1213 38.1971 11.3011 37.4281 11.6546 36.7346C12.0082 36.0411 12.5247 35.4437 13.16 34.9939L23.8895 26.2422C25.1822 27.1342 23.3724 34.619 23.3724 34.619L12.992 42.8536Z" fill="url(#paint1_linear_136_1805)"/>
<path d="M6.1665 50.6614V56.0003H4.47306C3.2719 55.9833 2.12651 55.4906 1.28805 54.6304C0.449587 53.7701 -0.0135103 52.6124 0.000300261 51.4112V46.0723C-0.0135103 47.2735 0.449587 48.4312 1.28805 49.2914C2.12651 50.1517 3.2719 50.6444 4.47306 50.6614H6.1665Z" fill="url(#paint2_linear_136_1805)"/>
<path d="M27.1471 28.4401C25.6863 31.0256 23.8507 34.1669 23.799 34.2574C23.7473 34.3479 24.6392 32.2795 26.0483 28.3367C26.8368 26.152 26.3327 25.622 24.9107 24.562L10.6909 13.4834V10.6523L25.9836 22.9719C27.9873 24.4715 28.9181 25.2988 27.1471 28.4401Z" fill="url(#paint3_linear_136_1805)"/>
<path d="M31.0252 26.1252C29.293 28.2582 23.9541 34.0237 23.7473 34.2693C23.7473 34.2693 27.2117 29.3182 29.5903 26.0218C31.0381 24.0181 29.1508 22.971 27.7417 21.898L10.7039 8.75108V5.26074C16.8054 10.1989 29.7325 20.5536 30.1203 20.8251C32.111 22.3375 33.0418 23.7078 31.0252 26.1252Z" fill="url(#paint4_linear_136_1805)"/>
<path d="M33.8691 26.2034C31.413 28.1812 24.0187 34.089 23.786 34.2699C24.0575 33.9985 32.835 26.0353 33.895 24.1738C35.1877 22.0408 33.4684 21.6659 31.7362 20.1147C31.5035 19.882 18.1886 9.04902 10.7039 3.02496V0C19.0806 6.8514 34.2569 19.2486 35.1231 19.8949C37.3853 21.6013 36.8941 23.7989 33.8691 26.2034Z" fill="url(#paint5_linear_136_1805)"/>
<path d="M49.498 33.0029V13.806H57.2542C58.3559 13.7843 59.4467 14.0282 60.4342 14.517C61.3308 14.9754 62.0826 15.6735 62.606 16.5337C63.156 17.4686 63.4336 18.5388 63.4075 19.6232V20.0111C63.4304 21.0887 63.1481 22.1508 62.5931 23.0748C62.0678 23.946 61.3056 24.6499 60.3955 25.1044C59.4218 25.5934 58.3435 25.8375 57.2542 25.8154H52.8202V33.0029H49.498ZM52.8202 22.8292H56.8793C57.7099 22.8656 58.5247 22.594 59.1674 22.0665C59.4596 21.7992 59.6889 21.4704 59.8387 21.1038C59.9885 20.7372 60.055 20.3419 60.0335 19.9464V19.675C60.0547 19.2826 59.9892 18.8905 59.8418 18.5263C59.6943 18.1621 59.4685 17.8349 59.1803 17.5678C58.5387 17.0294 57.7155 16.7566 56.8793 16.8051H52.8202V22.8292Z" fill="#262C33"/>
<path d="M66.148 33.0024V19.4547H69.2375V21.0189H69.7158C69.7883 20.7467 69.915 20.4919 70.0882 20.2698C70.2615 20.0477 70.4778 19.8628 70.7242 19.7262C71.2445 19.4804 71.8168 19.365 72.3917 19.3901H74.0723V22.1824H72.3917C71.5854 22.1475 70.7942 22.4097 70.1683 22.9192C69.8723 23.2071 69.6434 23.5569 69.4982 23.9435C69.3529 24.3301 69.2948 24.744 69.328 25.1556V32.9895L66.148 33.0024Z" fill="#262C33"/>
<path d="M82.7981 33.3907C81.5326 33.4122 80.281 33.1237 79.1527 32.5504C78.106 32.0096 77.2325 31.1853 76.6319 30.1718C75.9963 29.0361 75.6792 27.7498 75.7141 26.4488V26.0093C75.6811 24.7084 75.998 23.4226 76.6319 22.2862C77.2284 21.2661 78.1026 20.4367 79.1527 19.8947C80.286 19.338 81.5356 19.0589 82.7981 19.0803C84.0524 19.0585 85.2936 19.3378 86.4177 19.8947C87.4638 20.4375 88.3336 21.2671 88.9255 22.2862C89.5593 23.4226 89.8763 24.7084 89.8433 26.0093V26.4488C89.8782 27.7498 89.5611 29.0361 88.9255 30.1718C88.3295 31.1844 87.4604 32.0088 86.4177 32.5504C85.297 33.1196 84.0549 33.408 82.7981 33.3907ZM82.7981 30.5984C83.3184 30.6117 83.836 30.5201 84.3202 30.3291C84.8043 30.1381 85.2451 29.8516 85.6162 29.4867C85.9985 29.0673 86.2927 28.5755 86.4815 28.0403C86.6702 27.5052 86.7496 26.9376 86.715 26.3712V26.0997C86.7518 25.5331 86.6735 24.9649 86.4846 24.4295C86.2958 23.894 86.0003 23.4024 85.6162 22.9843C84.8485 22.271 83.8395 21.8746 82.7916 21.8746C81.7438 21.8746 80.7347 22.271 79.9671 22.9843C79.5806 23.4013 79.2828 23.8925 79.0917 24.428C78.9006 24.9635 78.8202 25.5322 78.8553 26.0997V26.3712C78.8207 26.9376 78.9001 27.5052 79.0888 28.0403C79.2776 28.5755 79.5718 29.0673 79.9541 29.4867C80.3283 29.8548 80.7732 30.1431 81.2621 30.3342C81.7509 30.5253 82.2735 30.6152 82.7981 30.5984Z" fill="#262C33"/>
<path d="M92.5322 26.2939V25.8544C92.4953 24.5775 92.7892 23.3128 93.3854 22.1831C93.9137 21.2184 94.7019 20.4212 95.6605 19.882C96.6136 19.3417 97.6934 19.065 98.7889 19.0805C99.8054 19.0097 100.819 19.2486 101.697 19.7657C102.293 20.1402 102.797 20.6439 103.171 21.2394H103.637V19.4554H106.713V35.5886C106.734 35.976 106.676 36.3637 106.543 36.728C106.409 37.0924 106.203 37.426 105.938 37.7086C105.665 37.9783 105.339 38.1878 104.981 38.3237C104.622 38.4595 104.239 38.5186 103.856 38.4972H94.8073V35.7566H102.835C102.946 35.7698 103.058 35.7573 103.163 35.7199C103.268 35.6826 103.363 35.6216 103.441 35.5415C103.518 35.4614 103.576 35.3645 103.61 35.2583C103.644 35.1521 103.653 35.0395 103.637 34.9293V31.0253H103.171C102.937 31.3781 102.659 31.6996 102.344 31.9819C101.939 32.3288 101.475 32.6003 100.974 32.7834C100.289 33.0246 99.5661 33.1385 98.8406 33.1195C97.7276 33.1443 96.6288 32.8673 95.6605 32.318C94.6984 31.7718 93.9098 30.9653 93.3854 29.9911C92.7842 28.8539 92.4902 27.5795 92.5322 26.2939ZM99.655 30.3143C100.175 30.3344 100.693 30.2498 101.18 30.0655C101.666 29.8811 102.11 29.6009 102.486 29.2413C102.874 28.8406 103.174 28.3636 103.368 27.8407C103.561 27.3177 103.644 26.7601 103.611 26.2034V25.9319C103.645 25.3744 103.563 24.8158 103.372 24.2909C103.181 23.7661 102.884 23.2862 102.499 22.8811C102.121 22.5223 101.674 22.2435 101.185 22.0614C100.696 21.8792 100.176 21.7975 99.655 21.8211C99.1121 21.7893 98.5687 21.8749 98.0618 22.0719C97.5549 22.2689 97.0963 22.5727 96.7174 22.9627C96.3384 23.3528 96.0478 23.8198 95.8654 24.3322C95.6831 24.8446 95.6132 25.3902 95.6605 25.9319V26.2034C95.6263 26.7613 95.7099 27.3201 95.9059 27.8435C96.1019 28.3669 96.4059 28.8431 96.7981 29.2413C97.177 29.6041 97.6255 29.8862 98.1166 30.0706C98.6076 30.255 99.131 30.3379 99.655 30.3143Z" fill="#262C33"/>
<path d="M110.708 33.003V19.4553H113.758V21.0195H114.224C114.38 20.4705 114.747 20.0058 115.245 19.7268C115.788 19.466 116.389 19.3503 116.99 19.3907H118.645V22.183H116.938C116.132 22.1456 115.34 22.4081 114.715 22.9198C114.414 23.2049 114.182 23.5539 114.034 23.9409C113.886 24.328 113.827 24.7433 113.862 25.1562V32.9901L110.708 33.003Z" fill="#262C33"/>
<path d="M125.276 33.3905C124.389 33.4067 123.508 33.2349 122.691 32.8864C121.954 32.5818 121.32 32.0699 120.868 31.4127C120.41 30.7161 120.184 29.8927 120.222 29.0599C120.191 28.2404 120.427 27.4329 120.894 26.7589C121.361 26.1169 122.002 25.6231 122.743 25.3369C123.589 25.014 124.487 24.8518 125.393 24.8586H129.271V24.0442C129.284 23.7239 129.233 23.4042 129.119 23.1043C129.006 22.8044 128.833 22.5305 128.612 22.299C128.079 21.8366 127.39 21.596 126.685 21.6268C125.939 21.5731 125.2 21.804 124.617 22.2732C124.143 22.7135 123.822 23.2929 123.699 23.9278L120.791 22.9712C121.008 22.2556 121.369 21.5915 121.851 21.0192C122.372 20.4033 123.032 19.9202 123.777 19.6102C124.699 19.2346 125.69 19.0541 126.685 19.0801C128.192 18.9872 129.681 19.4468 130.874 20.3729C131.398 20.8669 131.807 21.4707 132.071 22.1412C132.334 22.8116 132.446 23.5321 132.399 24.251V29.5641C132.399 30.12 132.645 30.3914 133.162 30.3914H134.312V32.9769H132.089C131.51 33.0049 130.939 32.8313 130.473 32.4856C130.275 32.3331 130.116 32.1372 130.006 31.913C129.896 31.6889 129.839 31.4425 129.84 31.1929H129.374C129.224 31.5256 129.033 31.8383 128.805 32.1237C128.457 32.5377 128.013 32.8615 127.513 33.0674C126.8 33.3386 126.037 33.449 125.276 33.3905ZM125.793 30.8051C126.738 30.8519 127.664 30.5323 128.379 29.9131C128.708 29.6082 128.967 29.235 129.136 28.8197C129.306 28.4043 129.383 27.9568 129.361 27.5087V27.2372H125.612C125.029 27.2086 124.45 27.3622 123.958 27.6767C123.75 27.82 123.583 28.0141 123.472 28.2405C123.362 28.4668 123.311 28.7178 123.324 28.9694C123.324 29.2218 123.383 29.4706 123.498 29.6954C123.613 29.9202 123.779 30.1144 123.984 30.2622C124.506 30.6487 125.144 30.8449 125.793 30.818V30.8051Z" fill="#262C33"/>
<path d="M136.911 33.0023V19.4546H140V20.9671H140.466C140.755 20.4652 141.169 20.0466 141.668 19.752C142.345 19.359 143.122 19.1705 143.904 19.209C144.74 19.171 145.568 19.3825 146.283 19.8166C146.87 20.1965 147.343 20.728 147.653 21.3549H148.093C148.387 20.7416 148.832 20.2125 149.385 19.8166C150.139 19.3717 151.007 19.1603 151.88 19.209C152.682 19.198 153.473 19.3892 154.181 19.7649C154.871 20.1361 155.441 20.6967 155.823 21.3808C156.262 22.1978 156.476 23.1168 156.444 24.0438V33.0023H153.289V24.2636C153.326 23.9395 153.289 23.6114 153.182 23.3033C153.075 22.9953 152.901 22.715 152.671 22.4832C152.442 22.2514 152.164 22.0739 151.857 21.9636C151.55 21.8534 151.222 21.8133 150.898 21.8462C150.532 21.8332 150.168 21.8979 149.829 22.036C149.491 22.1742 149.185 22.3827 148.933 22.6477C148.413 23.3078 148.156 24.1363 148.209 24.9745V33.0023H145.081V24.2636C145.117 23.9407 145.08 23.6138 144.974 23.3068C144.868 22.9998 144.695 22.7203 144.467 22.4887C144.239 22.2572 143.962 22.0793 143.657 21.9682C143.352 21.857 143.025 21.8153 142.702 21.8462C142.334 21.8313 141.968 21.8951 141.627 22.0333C141.286 22.1715 140.978 22.381 140.724 22.6477C140.209 23.3096 139.956 24.1379 140.013 24.9745V33.0023H136.911Z" fill="#262C33"/>
<path d="M160.36 33.0023V19.4546H163.45V20.9671H163.928C164.208 20.4628 164.619 20.0431 165.117 19.752C165.795 19.359 166.572 19.1705 167.354 19.209C168.189 19.171 169.017 19.3825 169.732 19.8166C170.319 20.1965 170.793 20.728 171.103 21.3549H171.542C171.837 20.7416 172.281 20.2125 172.835 19.8166C173.588 19.3717 174.456 19.1603 175.33 19.209C176.131 19.1963 176.923 19.3876 177.631 19.7649C178.321 20.1361 178.89 20.6967 179.272 21.3808C179.712 22.1978 179.926 23.1168 179.893 24.0438V33.0023H176.739V24.2636C176.775 23.9395 176.739 23.6114 176.632 23.3033C176.525 22.9953 176.35 22.715 176.121 22.4832C175.892 22.2514 175.613 22.0739 175.306 21.9636C174.999 21.8534 174.672 21.8133 174.347 21.8462C173.982 21.8332 173.618 21.8979 173.279 22.036C172.94 22.1742 172.635 22.3827 172.382 22.6477C171.863 23.3078 171.605 24.1363 171.658 24.9745V33.0023H168.53V24.2636C168.566 23.9407 168.53 23.6138 168.424 23.3068C168.317 22.9998 168.144 22.7203 167.916 22.4887C167.688 22.2572 167.412 22.0793 167.106 21.9682C166.801 21.857 166.475 21.8153 166.152 21.8462C165.784 21.8313 165.417 21.8951 165.076 22.0333C164.735 22.1715 164.427 22.381 164.174 22.6477C163.659 23.3096 163.406 24.1379 163.463 24.9745V33.0023H160.36Z" fill="#262C33"/>
<path d="M185.374 17.737C184.828 17.743 184.301 17.5394 183.9 17.1682C183.693 16.979 183.531 16.7466 183.423 16.4875C183.316 16.2283 183.267 15.9488 183.28 15.6686C183.268 15.3905 183.318 15.1132 183.425 14.8563C183.532 14.5994 183.694 14.3692 183.9 14.182C184.301 13.8108 184.828 13.6072 185.374 13.6132C185.647 13.6051 185.919 13.6512 186.174 13.7489C186.43 13.8465 186.663 13.9937 186.861 14.182C187.061 14.3727 187.217 14.6041 187.32 14.8606C187.422 15.1171 187.469 15.3927 187.455 15.6686C187.47 15.9466 187.424 16.2244 187.321 16.4832C187.219 16.7419 187.062 16.9756 186.861 17.1682C186.663 17.3565 186.43 17.5037 186.174 17.6013C185.919 17.6989 185.647 17.745 185.374 17.737ZM183.81 33.004V19.4563H186.964V33.004H183.81Z" fill="#262C33"/>
<path d="M190.959 33.0034V19.4557H194.061V21.356H194.527C194.832 20.7713 195.276 20.2699 195.819 19.8952C196.669 19.3797 197.658 19.1403 198.65 19.2101C199.619 19.1966 200.574 19.442 201.417 19.9211C202.215 20.3915 202.864 21.0769 203.291 21.899C203.761 22.8226 203.992 23.8492 203.963 24.8851V33.0034H200.809V25.1308C200.843 24.6908 200.79 24.2484 200.652 23.8291C200.515 23.4098 200.296 23.0218 200.008 22.6875C199.699 22.4032 199.336 22.1845 198.941 22.0445C198.545 21.9045 198.125 21.8462 197.707 21.8731C197.22 21.8552 196.736 21.9457 196.289 22.1379C195.842 22.3302 195.443 22.6195 195.121 22.9848C194.426 23.8883 194.086 25.0149 194.165 26.152V33.0034H190.959Z" fill="#262C33"/>
<path d="M207.169 26.2938V25.8542C207.132 24.5774 207.426 23.3127 208.022 22.1829C208.554 21.2144 209.341 20.4098 210.297 19.856C211.251 19.3169 212.33 19.0403 213.426 19.0545C214.446 18.9891 215.463 19.2275 216.347 19.7397C216.943 20.1142 217.446 20.6179 217.821 21.2134H218.286V19.4553H221.35V35.5884C221.372 35.975 221.317 36.3621 221.185 36.7264C221.054 37.0908 220.851 37.4248 220.587 37.7085C220.314 37.9775 219.988 38.1866 219.63 38.3224C219.272 38.4582 218.889 38.5177 218.506 38.497H209.418V35.7565H217.459C217.989 35.7565 218.248 35.4721 218.248 34.9291V31.0251H217.782C217.557 31.3808 217.283 31.7029 216.968 31.9817C216.561 32.326 216.097 32.5972 215.597 32.7832C214.909 33.0252 214.181 33.1391 213.452 33.1193C212.355 33.129 211.276 32.848 210.323 32.3049C209.367 31.7511 208.58 30.9465 208.048 29.978C207.44 28.8471 207.137 27.5773 207.169 26.2938ZM214.305 30.3141C214.825 30.3343 215.343 30.2496 215.829 30.0653C216.316 29.881 216.76 29.6007 217.136 29.2412C217.524 28.8405 217.824 28.3635 218.018 27.8405C218.211 27.3175 218.294 26.76 218.26 26.2033V25.9318C218.298 25.3761 218.221 24.8186 218.034 24.2938C217.847 23.7691 217.555 23.2882 217.175 22.881C216.794 22.5258 216.346 22.2493 215.858 22.0674C215.37 21.8855 214.851 21.8017 214.331 21.821C213.789 21.7911 213.247 21.8781 212.742 22.0759C212.236 22.2738 211.779 22.5779 211.402 22.9677C211.024 23.3576 210.735 23.8239 210.553 24.3353C210.372 24.8467 210.302 25.3912 210.349 25.9318V26.2033C210.317 26.7609 210.402 27.319 210.598 27.8421C210.794 28.3651 211.096 28.8416 211.487 29.2412C212.248 29.9569 213.261 30.3426 214.305 30.3141Z" fill="#262C33"/>
<path d="M232.248 33.0025V13.8057H235.557V21.8722H243.132V13.8057H246.454V33.0025H243.132V24.8843H235.557V33.0025H232.248Z" fill="#262C33"/>
<path d="M256.537 33.3914C255.293 33.42 254.063 33.1214 252.97 32.5253C251.941 31.9666 251.1 31.1166 250.552 30.082C249.952 28.9488 249.653 27.6799 249.686 26.3978V26.0746C249.653 24.7857 249.946 23.5094 250.539 22.3645C251.088 21.3466 251.912 20.5042 252.918 19.9342C254.006 19.3514 255.226 19.0576 256.46 19.081C257.666 19.0524 258.858 19.347 259.911 19.9342C260.896 20.511 261.698 21.3532 262.225 22.3645C262.79 23.4952 263.069 24.7466 263.04 26.01V27.1476H252.866C252.863 27.6332 252.961 28.1141 253.155 28.5594C253.348 29.0047 253.633 29.4045 253.991 29.733C254.706 30.3577 255.626 30.6981 256.576 30.6896C257.392 30.7569 258.203 30.5172 258.851 30.0174C259.326 29.5902 259.708 29.0713 259.976 28.492L262.562 29.7847C262.26 30.3527 261.891 30.8823 261.463 31.3618C260.917 31.96 260.258 32.4434 259.524 32.7838C258.587 33.2088 257.566 33.4165 256.537 33.3914ZM252.892 24.756H259.834C259.816 24.347 259.715 23.9459 259.537 23.577C259.359 23.2081 259.108 22.8792 258.8 22.6101C258.136 22.0628 257.293 21.7817 256.434 21.8216C255.558 21.7762 254.697 22.0571 254.017 22.6101C253.403 23.1724 253.005 23.9314 252.892 24.756Z" fill="#262C33"/>
<path d="M266.298 33.0031V19.4554H269.387V21.0196H269.853C270.009 20.4707 270.376 20.0059 270.874 19.7269C271.401 19.457 271.988 19.3236 272.58 19.3391H274.222V22.1314H272.503C271.696 22.0965 270.905 22.3587 270.279 22.8682C269.983 23.1562 269.754 23.5059 269.609 23.8925C269.464 24.2791 269.406 24.693 269.439 25.1046V32.9385L266.298 33.0031Z" fill="#262C33"/>
<path d="M282.935 33.3907C281.669 33.4122 280.418 33.1237 279.289 32.5504C278.219 32.0195 277.322 31.1944 276.704 30.1718C276.068 29.0361 275.751 27.7498 275.786 26.4488V26.0093C275.753 24.7084 276.07 23.4226 276.704 22.2862C277.318 21.257 278.215 20.4267 279.289 19.8947C280.423 19.338 281.672 19.0589 282.935 19.0803C284.189 19.0585 285.43 19.3378 286.554 19.8947C287.6 20.4375 288.47 21.2671 289.062 22.2862C289.696 23.4226 290.013 24.7084 289.98 26.0093V26.4488C290.015 27.7498 289.698 29.0361 289.062 30.1718C288.466 31.1844 287.597 32.0088 286.554 32.5504C285.434 33.1196 284.191 33.408 282.935 33.3907ZM282.935 30.5984C283.455 30.6117 283.973 30.5201 284.457 30.3291C284.941 30.1381 285.382 29.8516 285.753 29.4867C286.135 29.0673 286.429 28.5755 286.618 28.0403C286.807 27.5052 286.886 26.9376 286.852 26.3712V26.0997C286.888 25.5331 286.81 24.9649 286.621 24.4295C286.432 23.894 286.137 23.4024 285.753 22.9843C284.985 22.271 283.976 21.8746 282.928 21.8746C281.88 21.8746 280.871 22.271 280.104 22.9843C279.719 23.4024 279.424 23.894 279.235 24.4295C279.046 24.9649 278.968 25.5331 279.005 26.0997V26.3712C278.97 26.9376 279.05 27.5052 279.238 28.0403C279.427 28.5755 279.721 29.0673 280.104 29.4867C280.476 29.8532 280.919 30.1406 281.406 30.3316C281.892 30.5227 282.412 30.6134 282.935 30.5984Z" fill="#262C33"/>
<defs>
<linearGradient id="paint0_linear_136_1805" x1="-2.24901" y1="40.1647" x2="18.5121" y2="8.01504" gradientUnits="userSpaceOnUse">
<stop stop-color="#5C53FE"/>
<stop offset="0.12" stop-color="#674EFD"/>
<stop offset="0.34" stop-color="#843FFB"/>
<stop offset="0.62" stop-color="#B427F6"/>
<stop offset="0.95" stop-color="#F507F1"/>
<stop offset="1" stop-color="#FF02F0"/>
</linearGradient>
<linearGradient id="paint1_linear_136_1805" x1="9.64386" y1="47.8435" x2="30.3921" y2="15.6938" gradientUnits="userSpaceOnUse">
<stop stop-color="#5C53FE"/>
<stop offset="0.15" stop-color="#674CFA"/>
<stop offset="0.41" stop-color="#8439EF"/>
<stop offset="0.74" stop-color="#B41CDD"/>
<stop offset="1" stop-color="#DC02CE"/>
</linearGradient>
<linearGradient id="paint2_linear_136_1805" x1="6.46382" y1="45.8008" x2="27.2249" y2="13.6511" gradientUnits="userSpaceOnUse">
<stop stop-color="#5C53FE"/>
<stop offset="0.15" stop-color="#674CFA"/>
<stop offset="0.41" stop-color="#8439EF"/>
<stop offset="0.74" stop-color="#B41CDD"/>
<stop offset="1" stop-color="#DC02CE"/>
</linearGradient>
<linearGradient id="paint3_linear_136_1805" x1="3.43886" y1="43.8364" x2="24.2" y2="11.6867" gradientUnits="userSpaceOnUse">
<stop stop-color="#5C53FE"/>
<stop offset="0.15" stop-color="#674CFA"/>
<stop offset="0.41" stop-color="#8439EF"/>
<stop offset="0.74" stop-color="#B41CDD"/>
<stop offset="1" stop-color="#DC02CE"/>
</linearGradient>
<linearGradient id="paint4_linear_136_1805" x1="2.94763" y1="43.5252" x2="23.7088" y2="11.3755" gradientUnits="userSpaceOnUse">
<stop stop-color="#5C53FE"/>
<stop offset="0.15" stop-color="#674CFA"/>
<stop offset="0.41" stop-color="#8439EF"/>
<stop offset="0.74" stop-color="#B41CDD"/>
<stop offset="1" stop-color="#DC02CE"/>
</linearGradient>
<linearGradient id="paint5_linear_136_1805" x1="2.97348" y1="43.5387" x2="23.7346" y2="11.389" gradientUnits="userSpaceOnUse">
<stop stop-color="#5C53FE"/>
<stop offset="0.15" stop-color="#674CFA"/>
<stop offset="0.41" stop-color="#8439EF"/>
<stop offset="0.74" stop-color="#B41CDD"/>
<stop offset="1" stop-color="#DC02CE"/>
</linearGradient>
</defs>
</svg>
